<mxfile host="app.diagrams.net" modified="2023-05-16T05:58:21.088Z" agent="Mozilla/5.0 (Windows NT 10.0; Win64; x64; rv:91.0) Gecko/20100101 Firefox/91.0" etag="uffTE1c4dftkqSAxkl6F" version="21.1.4" type="github">
  <diagram id="yKMXlh3He5rKh7WeZDES" name="Page-1">
    <mxGraphModel dx="1434" dy="754" grid="1" gridSize="10" guides="1" tooltips="1" connect="1" arrows="1" fold="1" page="1" pageScale="1" pageWidth="1169" pageHeight="827" math="0" shadow="0">
      <root>
        <mxCell id="0" />
        <mxCell id="1" parent="0" />
        <mxCell id="LRofh7eZILfoCd86CygD-2" value="actes-automatique" style="shape=hexagon;perimeter=hexagonPerimeter2;whiteSpace=wrap;html=1;fixedSize=1;fillColor=#FFF2CC;strokeColor=#82b366;" parent="1" vertex="1">
          <mxGeometry x="10" y="750" width="150" height="60" as="geometry" />
        </mxCell>
        <mxCell id="LRofh7eZILfoCd86CygD-1" value="actes-generique" style="shape=hexagon;perimeter=hexagonPerimeter2;whiteSpace=wrap;html=1;fixedSize=1;fillColor=#FFF2CC;strokeColor=#82b366;" parent="1" vertex="1">
          <mxGeometry x="10" y="650" width="150" height="60" as="geometry" />
        </mxCell>
        <mxCell id="QPKnpDNXjxQwDzzotiPI-1" value="ged-megalis-opendata-auto" style="rounded=1;whiteSpace=wrap;html=1;" parent="1" vertex="1">
          <mxGeometry x="370" y="292.75" width="200" height="80" as="geometry" />
        </mxCell>
        <mxCell id="QPKnpDNXjxQwDzzotiPI-2" value="ged-megalis-opendata-auto-AG" style="rounded=1;whiteSpace=wrap;html=1;" parent="1" vertex="1">
          <mxGeometry x="370" y="580" width="200" height="80" as="geometry" />
        </mxCell>
        <mxCell id="QPKnpDNXjxQwDzzotiPI-3" value="ged-megalis-opendata-auto-budget" style="rounded=1;whiteSpace=wrap;html=1;" parent="1" vertex="1">
          <mxGeometry x="370" y="386.38" width="200" height="80" as="geometry" />
        </mxCell>
        <mxCell id="QPKnpDNXjxQwDzzotiPI-5" value="ged-megalis-opendata-sans-tdt" style="rounded=1;whiteSpace=wrap;html=1;" parent="1" vertex="1">
          <mxGeometry x="370" y="480" width="200" height="80" as="geometry" />
        </mxCell>
        <mxCell id="QPKnpDNXjxQwDzzotiPI-6" value="ged-megalis-opendata" style="shape=hexagon;perimeter=hexagonPerimeter2;whiteSpace=wrap;html=1;fixedSize=1;fillColor=#d5e8d4;strokeColor=#82b366;" parent="1" vertex="1">
          <mxGeometry x="660" y="490" width="160" height="60" as="geometry" />
        </mxCell>
        <mxCell id="QPKnpDNXjxQwDzzotiPI-7" value="FLUX STUDIO" style="shape=hexagon;perimeter=hexagonPerimeter2;whiteSpace=wrap;html=1;fixedSize=1;fillColor=#d5e8d4;strokeColor=#82b366;" parent="1" vertex="1">
          <mxGeometry x="180" y="20" width="120" height="50" as="geometry" />
        </mxCell>
        <mxCell id="QPKnpDNXjxQwDzzotiPI-9" value="CONNECTEUR GED depot-pastell" style="rounded=1;whiteSpace=wrap;html=1;" parent="1" vertex="1">
          <mxGeometry x="445" y="20" width="140" height="50" as="geometry" />
        </mxCell>
        <mxCell id="QPKnpDNXjxQwDzzotiPI-14" value="deliberations-studio" style="shape=hexagon;perimeter=hexagonPerimeter2;whiteSpace=wrap;html=1;fixedSize=1;fillColor=#d5e8d4;strokeColor=#82b366;" parent="1" vertex="1">
          <mxGeometry x="10" y="142.75" width="150" height="60" as="geometry" />
        </mxCell>
        <mxCell id="QPKnpDNXjxQwDzzotiPI-15" value="" style="shape=link;html=1;rounded=0;" parent="1" edge="1">
          <mxGeometry width="100" relative="1" as="geometry">
            <mxPoint x="20" y="110" as="sourcePoint" />
            <mxPoint x="1070" y="113.71681415929208" as="targetPoint" />
          </mxGeometry>
        </mxCell>
        <mxCell id="QPKnpDNXjxQwDzzotiPI-16" value="" style="endArrow=classic;html=1;rounded=0;exitX=1;exitY=0.5;exitDx=0;exitDy=0;entryX=0;entryY=0.5;entryDx=0;entryDy=0;" parent="1" source="QPKnpDNXjxQwDzzotiPI-6" target="LRofh7eZILfoCd86CygD-12" edge="1">
          <mxGeometry width="50" height="50" relative="1" as="geometry">
            <mxPoint x="700" y="420" as="sourcePoint" />
            <mxPoint x="854.5" y="525" as="targetPoint" />
          </mxGeometry>
        </mxCell>
        <mxCell id="QPKnpDNXjxQwDzzotiPI-17" value="" style="endArrow=classic;html=1;rounded=0;entryX=0.5;entryY=1;entryDx=0;entryDy=0;exitX=0.5;exitY=0;exitDx=0;exitDy=0;" parent="1" source="LRofh7eZILfoCd86CygD-12" target="LRofh7eZILfoCd86CygD-13" edge="1">
          <mxGeometry width="50" height="50" relative="1" as="geometry">
            <mxPoint x="940" y="490" as="sourcePoint" />
            <mxPoint x="920" y="446" as="targetPoint" />
          </mxGeometry>
        </mxCell>
        <mxCell id="QPKnpDNXjxQwDzzotiPI-18" value="" style="endArrow=classic;html=1;rounded=0;entryX=0.375;entryY=0;entryDx=0;entryDy=0;exitX=1;exitY=0.5;exitDx=0;exitDy=0;strokeColor=#FFB570;strokeWidth=2;" parent="1" source="QPKnpDNXjxQwDzzotiPI-1" target="QPKnpDNXjxQwDzzotiPI-6" edge="1">
          <mxGeometry width="50" height="50" relative="1" as="geometry">
            <mxPoint x="550" y="330" as="sourcePoint" />
            <mxPoint x="600" y="280" as="targetPoint" />
          </mxGeometry>
        </mxCell>
        <mxCell id="QPKnpDNXjxQwDzzotiPI-19" value="" style="endArrow=classic;html=1;rounded=0;exitX=1;exitY=0.5;exitDx=0;exitDy=0;strokeColor=#FFB570;strokeWidth=2;" parent="1" source="QPKnpDNXjxQwDzzotiPI-2" target="QPKnpDNXjxQwDzzotiPI-6" edge="1">
          <mxGeometry width="50" height="50" relative="1" as="geometry">
            <mxPoint x="700" y="490" as="sourcePoint" />
            <mxPoint x="670" y="490" as="targetPoint" />
          </mxGeometry>
        </mxCell>
        <mxCell id="QPKnpDNXjxQwDzzotiPI-20" value="" style="endArrow=classic;html=1;rounded=0;entryX=0;entryY=0.5;entryDx=0;entryDy=0;exitX=1;exitY=0.5;exitDx=0;exitDy=0;strokeColor=#FFB570;strokeWidth=2;" parent="1" source="QPKnpDNXjxQwDzzotiPI-5" target="QPKnpDNXjxQwDzzotiPI-6" edge="1">
          <mxGeometry width="50" height="50" relative="1" as="geometry">
            <mxPoint x="550" y="540" as="sourcePoint" />
            <mxPoint x="600" y="490" as="targetPoint" />
          </mxGeometry>
        </mxCell>
        <mxCell id="QPKnpDNXjxQwDzzotiPI-23" value="actes-reglementaires-studio" style="shape=hexagon;perimeter=hexagonPerimeter2;whiteSpace=wrap;html=1;fixedSize=1;fillColor=#d5e8d4;strokeColor=#82b366;" parent="1" vertex="1">
          <mxGeometry x="10" y="226.75" width="150" height="60" as="geometry" />
        </mxCell>
        <mxCell id="QPKnpDNXjxQwDzzotiPI-24" value="arretes-individuels-studio" style="shape=hexagon;perimeter=hexagonPerimeter2;whiteSpace=wrap;html=1;fixedSize=1;fillColor=#d5e8d4;strokeColor=#82b366;" parent="1" vertex="1">
          <mxGeometry x="10" y="312.75" width="150" height="60" as="geometry" />
        </mxCell>
        <mxCell id="QPKnpDNXjxQwDzzotiPI-25" value="autres-studio" style="shape=hexagon;perimeter=hexagonPerimeter2;whiteSpace=wrap;html=1;fixedSize=1;fillColor=#d5e8d4;strokeColor=#82b366;" parent="1" vertex="1">
          <mxGeometry x="10.000000000000002" y="396.38" width="150" height="60" as="geometry" />
        </mxCell>
        <mxCell id="QPKnpDNXjxQwDzzotiPI-26" value="" style="endArrow=classic;html=1;rounded=0;entryX=0;entryY=0.5;entryDx=0;entryDy=0;exitX=1;exitY=0.5;exitDx=0;exitDy=0;strokeColor=#009900;strokeWidth=2;" parent="1" source="QPKnpDNXjxQwDzzotiPI-14" target="QPKnpDNXjxQwDzzotiPI-1" edge="1">
          <mxGeometry width="50" height="50" relative="1" as="geometry">
            <mxPoint x="150" y="260" as="sourcePoint" />
            <mxPoint x="200" y="210" as="targetPoint" />
          </mxGeometry>
        </mxCell>
        <mxCell id="QPKnpDNXjxQwDzzotiPI-27" value="" style="endArrow=classic;html=1;rounded=0;entryX=0;entryY=0.5;entryDx=0;entryDy=0;exitX=1;exitY=0.5;exitDx=0;exitDy=0;strokeColor=#009900;strokeWidth=2;" parent="1" source="QPKnpDNXjxQwDzzotiPI-23" target="QPKnpDNXjxQwDzzotiPI-1" edge="1">
          <mxGeometry width="50" height="50" relative="1" as="geometry">
            <mxPoint x="150" y="320" as="sourcePoint" />
            <mxPoint x="200" y="270" as="targetPoint" />
          </mxGeometry>
        </mxCell>
        <mxCell id="QPKnpDNXjxQwDzzotiPI-28" value="" style="endArrow=classic;html=1;rounded=0;entryX=0;entryY=0.5;entryDx=0;entryDy=0;exitX=1;exitY=0.5;exitDx=0;exitDy=0;strokeColor=#009900;strokeWidth=2;" parent="1" source="QPKnpDNXjxQwDzzotiPI-24" target="QPKnpDNXjxQwDzzotiPI-1" edge="1">
          <mxGeometry width="50" height="50" relative="1" as="geometry">
            <mxPoint x="150" y="372.75" as="sourcePoint" />
            <mxPoint x="200" y="322.75" as="targetPoint" />
          </mxGeometry>
        </mxCell>
        <mxCell id="QPKnpDNXjxQwDzzotiPI-29" value="" style="endArrow=classic;html=1;rounded=0;entryX=0;entryY=0.5;entryDx=0;entryDy=0;exitX=1;exitY=0.5;exitDx=0;exitDy=0;strokeColor=#009900;strokeWidth=2;" parent="1" source="QPKnpDNXjxQwDzzotiPI-25" target="QPKnpDNXjxQwDzzotiPI-1" edge="1">
          <mxGeometry width="50" height="50" relative="1" as="geometry">
            <mxPoint x="150" y="430" as="sourcePoint" />
            <mxPoint x="200" y="380" as="targetPoint" />
          </mxGeometry>
        </mxCell>
        <mxCell id="QPKnpDNXjxQwDzzotiPI-34" value="" style="endArrow=classic;html=1;rounded=0;exitX=1;exitY=0.5;exitDx=0;exitDy=0;entryX=0;entryY=0.5;entryDx=0;entryDy=0;strokeColor=#009900;strokeWidth=2;" parent="1" target="QPKnpDNXjxQwDzzotiPI-2" edge="1">
          <mxGeometry width="50" height="50" relative="1" as="geometry">
            <mxPoint x="160" y="680" as="sourcePoint" />
            <mxPoint x="360" y="433" as="targetPoint" />
          </mxGeometry>
        </mxCell>
        <mxCell id="QPKnpDNXjxQwDzzotiPI-35" value="documents-budgetaires-studio" style="shape=hexagon;perimeter=hexagonPerimeter2;whiteSpace=wrap;html=1;fixedSize=1;fillColor=#d5e8d4;strokeColor=#82b366;" parent="1" vertex="1">
          <mxGeometry x="10" y="480" width="150" height="60" as="geometry" />
        </mxCell>
        <mxCell id="QPKnpDNXjxQwDzzotiPI-38" value="autres-studio-sans-tdt" style="shape=hexagon;perimeter=hexagonPerimeter2;whiteSpace=wrap;html=1;fixedSize=1;fillColor=#d5e8d4;strokeColor=#82b366;" parent="1" vertex="1">
          <mxGeometry x="10" y="560" width="150" height="60" as="geometry" />
        </mxCell>
        <mxCell id="QPKnpDNXjxQwDzzotiPI-39" value="" style="endArrow=classic;html=1;rounded=0;exitX=1;exitY=0.5;exitDx=0;exitDy=0;entryX=0;entryY=0.5;entryDx=0;entryDy=0;strokeColor=#009900;strokeWidth=2;" parent="1" source="QPKnpDNXjxQwDzzotiPI-38" target="QPKnpDNXjxQwDzzotiPI-5" edge="1">
          <mxGeometry width="50" height="50" relative="1" as="geometry">
            <mxPoint x="700" y="560" as="sourcePoint" />
            <mxPoint x="750" y="510" as="targetPoint" />
          </mxGeometry>
        </mxCell>
        <mxCell id="NiUOaJjkk8fQGssEyTuc-1" value="1" style="ellipse;whiteSpace=wrap;html=1;fillColor=#330000;fontColor=#FFFFFF;fontSize=10;fontStyle=1" parent="1" vertex="1">
          <mxGeometry x="16.169999999999973" y="130" width="20" height="20" as="geometry" />
        </mxCell>
        <mxCell id="NiUOaJjkk8fQGssEyTuc-2" value="2" style="ellipse;whiteSpace=wrap;html=1;fillColor=#330000;fontColor=#FFFFFF;fontSize=10;fontStyle=1" parent="1" vertex="1">
          <mxGeometry x="16.169999999999987" y="219.75" width="20" height="20" as="geometry" />
        </mxCell>
        <mxCell id="NiUOaJjkk8fQGssEyTuc-4" value="6" style="ellipse;whiteSpace=wrap;html=1;fillColor=#330000;fontColor=#FFFFFF;fontSize=10;fontStyle=1" parent="1" vertex="1">
          <mxGeometry x="16.169999999999987" y="384" width="20" height="20" as="geometry" />
        </mxCell>
        <mxCell id="NiUOaJjkk8fQGssEyTuc-5" value="3" style="ellipse;whiteSpace=wrap;html=1;fillColor=#330000;fontColor=#FFFFFF;fontSize=10;fontStyle=1" parent="1" vertex="1">
          <mxGeometry x="16.169999999999987" y="300" width="20" height="20" as="geometry" />
        </mxCell>
        <mxCell id="NiUOaJjkk8fQGssEyTuc-7" value="5" style="ellipse;whiteSpace=wrap;html=1;fillColor=#330000;fontColor=#FFFFFF;fontSize=10;fontStyle=1" parent="1" vertex="1">
          <mxGeometry x="16.169999999999973" y="466.38" width="20" height="20" as="geometry" />
        </mxCell>
        <mxCell id="NiUOaJjkk8fQGssEyTuc-9" value="7" style="ellipse;whiteSpace=wrap;html=1;fillColor=#330000;fontColor=#FFFFFF;fontSize=10;fontStyle=1" parent="1" vertex="1">
          <mxGeometry x="16.16999999999996" y="550" width="20" height="20" as="geometry" />
        </mxCell>
        <mxCell id="NiUOaJjkk8fQGssEyTuc-10" value="4" style="ellipse;whiteSpace=wrap;html=1;fillColor=#330000;fontColor=#FFFFFF;fontSize=10;fontStyle=1" parent="1" vertex="1">
          <mxGeometry x="75" y="630" width="20" height="20" as="geometry" />
        </mxCell>
        <mxCell id="NiUOaJjkk8fQGssEyTuc-15" value="" style="edgeStyle=none;orthogonalLoop=1;jettySize=auto;html=1;rounded=0;fontSize=24;fontColor=#FFFFFF;endArrow=open;startSize=14;endSize=6;sourcePerimeterSpacing=8;targetPerimeterSpacing=8;curved=1;entryX=0.562;entryY=1.007;entryDx=0;entryDy=0;exitX=0.5;exitY=0;exitDx=0;exitDy=0;entryPerimeter=0;" parent="1" source="LRofh7eZILfoCd86CygD-13" target="LRofh7eZILfoCd86CygD-15" edge="1">
          <mxGeometry width="140" relative="1" as="geometry">
            <mxPoint x="920" y="390" as="sourcePoint" />
            <mxPoint x="620" y="320" as="targetPoint" />
            <Array as="points" />
          </mxGeometry>
        </mxCell>
        <mxCell id="NiUOaJjkk8fQGssEyTuc-28" value="&lt;font style=&quot;font-size: 10px;&quot;&gt;1&lt;/font&gt;" style="ellipse;whiteSpace=wrap;html=1;fillColor=#330000;fontColor=#FFFFFF;fontSize=10;fontStyle=1" parent="1" vertex="1">
          <mxGeometry x="808" y="202.75" width="20" height="20" as="geometry" />
        </mxCell>
        <mxCell id="NiUOaJjkk8fQGssEyTuc-29" value="2" style="ellipse;whiteSpace=wrap;html=1;fillColor=#330000;fontColor=#FFFFFF;fontSize=10;fontStyle=1" parent="1" vertex="1">
          <mxGeometry x="832" y="202.75" width="20" height="20" as="geometry" />
        </mxCell>
        <mxCell id="NiUOaJjkk8fQGssEyTuc-30" value="5" style="ellipse;whiteSpace=wrap;html=1;fillColor=#330000;fontColor=#FFFFFF;fontSize=10;fontStyle=1;labelBorderColor=default;" parent="1" vertex="1">
          <mxGeometry x="856" y="202.75" width="20" height="20" as="geometry" />
        </mxCell>
        <mxCell id="NiUOaJjkk8fQGssEyTuc-31" value="7" style="ellipse;whiteSpace=wrap;html=1;fillColor=#330000;fontColor=#FFFFFF;fontSize=10;fontStyle=1;labelBorderColor=default;" parent="1" vertex="1">
          <mxGeometry x="880" y="202.75" width="20" height="20" as="geometry" />
        </mxCell>
        <mxCell id="NiUOaJjkk8fQGssEyTuc-40" value="6" style="ellipse;whiteSpace=wrap;html=1;fillColor=#330000;fontColor=#FFFFFF;fontSize=10;fontStyle=1;labelBorderColor=default;" parent="1" vertex="1">
          <mxGeometry x="880" y="249.75" width="20" height="20" as="geometry" />
        </mxCell>
        <mxCell id="NiUOaJjkk8fQGssEyTuc-41" value="3" style="ellipse;whiteSpace=wrap;html=1;fillColor=#330000;fontColor=#FFFFFF;fontSize=10;fontStyle=1;labelBorderColor=default;" parent="1" vertex="1">
          <mxGeometry x="856" y="249.75" width="20" height="20" as="geometry" />
        </mxCell>
        <mxCell id="NiUOaJjkk8fQGssEyTuc-43" value="" style="edgeStyle=none;orthogonalLoop=1;jettySize=auto;html=1;shape=flexArrow;rounded=1;startSize=8;endSize=8;fontSize=20;fontColor=#330000;endArrow=open;sourcePerimeterSpacing=8;targetPerimeterSpacing=8;curved=1;" parent="1" edge="1">
          <mxGeometry width="140" relative="1" as="geometry">
            <mxPoint x="914" y="217.25" as="sourcePoint" />
            <mxPoint x="971.65" y="217.5" as="targetPoint" />
            <Array as="points" />
          </mxGeometry>
        </mxCell>
        <mxCell id="NiUOaJjkk8fQGssEyTuc-44" value="3 (oui)" style="text;strokeColor=none;fillColor=none;html=1;align=center;verticalAlign=middle;whiteSpace=wrap;rounded=0;fontSize=16;fontColor=#330000;fontStyle=1" parent="1" vertex="1">
          <mxGeometry x="980" y="200.75" width="60" height="30" as="geometry" />
        </mxCell>
        <mxCell id="NiUOaJjkk8fQGssEyTuc-45" value="" style="edgeStyle=none;orthogonalLoop=1;jettySize=auto;html=1;shape=flexArrow;rounded=1;startSize=8;endSize=8;fontSize=20;fontColor=#330000;endArrow=open;sourcePerimeterSpacing=8;targetPerimeterSpacing=8;curved=1;" parent="1" edge="1">
          <mxGeometry width="140" relative="1" as="geometry">
            <mxPoint x="914" y="264.25" as="sourcePoint" />
            <mxPoint x="971.6500000000001" y="264.5" as="targetPoint" />
            <Array as="points" />
          </mxGeometry>
        </mxCell>
        <mxCell id="NiUOaJjkk8fQGssEyTuc-46" value="1 (non)" style="text;strokeColor=none;fillColor=none;html=1;align=center;verticalAlign=middle;whiteSpace=wrap;rounded=0;fontSize=16;fontColor=#330000;fontStyle=1" parent="1" vertex="1">
          <mxGeometry x="980" y="247" width="60" height="30" as="geometry" />
        </mxCell>
        <mxCell id="NiUOaJjkk8fQGssEyTuc-51" value="4" style="ellipse;whiteSpace=wrap;html=1;fillColor=#330000;fontColor=#FFFFFF;fontSize=10;fontStyle=1;labelBorderColor=default;" parent="1" vertex="1">
          <mxGeometry x="880" y="286.75" width="20" height="20" as="geometry" />
        </mxCell>
        <mxCell id="NiUOaJjkk8fQGssEyTuc-52" value="" style="edgeStyle=none;orthogonalLoop=1;jettySize=auto;html=1;shape=flexArrow;rounded=1;startSize=8;endSize=8;fontSize=20;fontColor=#330000;endArrow=open;sourcePerimeterSpacing=8;targetPerimeterSpacing=8;curved=1;" parent="1" edge="1">
          <mxGeometry width="140" relative="1" as="geometry">
            <mxPoint x="914" y="301.25" as="sourcePoint" />
            <mxPoint x="971.6500000000001" y="301.5" as="targetPoint" />
            <Array as="points" />
          </mxGeometry>
        </mxCell>
        <mxCell id="NiUOaJjkk8fQGssEyTuc-53" value="2 (nsp)" style="text;strokeColor=none;fillColor=none;html=1;align=center;verticalAlign=middle;whiteSpace=wrap;rounded=0;fontSize=16;fontColor=#330000;fontStyle=1" parent="1" vertex="1">
          <mxGeometry x="980" y="284" width="60" height="30" as="geometry" />
        </mxCell>
        <mxCell id="NiUOaJjkk8fQGssEyTuc-56" value="&lt;span style=&quot;color: rgb(51, 51, 51); font-size: 12px;&quot;&gt;POD = NULL, 1,2,3&lt;/span&gt;" style="rounded=0;whiteSpace=wrap;html=1;fontSize=14;fillColor=#eeeeee;strokeColor=#36393d;" parent="1" vertex="1">
          <mxGeometry x="390" y="346.38" width="140" height="20" as="geometry" />
        </mxCell>
        <mxCell id="NiUOaJjkk8fQGssEyTuc-57" value="&lt;span style=&quot;color: rgb(51, 51, 51); font-size: 12px;&quot;&gt;POD = 2&lt;/span&gt;" style="rounded=0;whiteSpace=wrap;html=1;fontSize=14;fillColor=#eeeeee;strokeColor=#36393d;" parent="1" vertex="1">
          <mxGeometry x="400" y="630" width="140" height="20" as="geometry" />
        </mxCell>
        <mxCell id="NiUOaJjkk8fQGssEyTuc-58" value="&lt;span style=&quot;color: rgb(51, 51, 51); font-size: 12px;&quot;&gt;POD = 0&lt;/span&gt;" style="rounded=0;whiteSpace=wrap;html=1;fontSize=14;fillColor=#eeeeee;strokeColor=#36393d;" parent="1" vertex="1">
          <mxGeometry x="390" y="439.38" width="140" height="20" as="geometry" />
        </mxCell>
        <mxCell id="NiUOaJjkk8fQGssEyTuc-59" value="&lt;span style=&quot;color: rgb(51, 51, 51); font-size: 12px;&quot;&gt;POD = NULL, 1,2,3&lt;/span&gt;" style="rounded=0;whiteSpace=wrap;html=1;fontSize=14;fillColor=#eeeeee;strokeColor=#36393d;" parent="1" vertex="1">
          <mxGeometry x="390" y="530" width="140" height="20" as="geometry" />
        </mxCell>
        <mxCell id="NiUOaJjkk8fQGssEyTuc-61" value="&lt;span style=&quot;color: rgb(51, 51, 51); font-size: 12px;&quot;&gt;POD = Publication open data&lt;br&gt;&amp;nbsp;* 0 = oui (historique)&lt;br&gt;&amp;nbsp;* 1 = non&lt;br&gt;&amp;nbsp;* 2 = ne sais pas&lt;br&gt;&amp;nbsp;* 3 = oui&lt;br&gt;&lt;br&gt;&lt;/span&gt;" style="rounded=0;whiteSpace=wrap;html=1;fontSize=14;fillColor=#eeeeee;strokeColor=#36393d;verticalAlign=top;align=left;" parent="1" vertex="1">
          <mxGeometry x="610" y="705" width="190" height="90" as="geometry" />
        </mxCell>
        <mxCell id="NiUOaJjkk8fQGssEyTuc-64" value="" style="endArrow=classic;html=1;rounded=0;entryX=0;entryY=0.5;entryDx=0;entryDy=0;exitX=1;exitY=0.5;exitDx=0;exitDy=0;strokeColor=#009900;strokeWidth=2;" parent="1" target="QPKnpDNXjxQwDzzotiPI-3" edge="1">
          <mxGeometry width="50" height="50" relative="1" as="geometry">
            <mxPoint x="160" y="510.0100000000001" as="sourcePoint" />
            <mxPoint x="370" y="421.38" as="targetPoint" />
          </mxGeometry>
        </mxCell>
        <mxCell id="NiUOaJjkk8fQGssEyTuc-68" value="&lt;font style=&quot;font-size: 20px;&quot;&gt;Schéma de publication open data Pastell&lt;/font&gt;" style="text;strokeColor=none;fillColor=none;html=1;align=center;verticalAlign=middle;whiteSpace=wrap;rounded=0;fontSize=26;fontColor=#330000;" parent="1" vertex="1">
          <mxGeometry x="3.09" width="170" height="110" as="geometry" />
        </mxCell>
        <mxCell id="NiUOaJjkk8fQGssEyTuc-77" value="1" style="ellipse;whiteSpace=wrap;html=1;fillColor=#330000;fontColor=#FFFFFF;fontSize=10;fontStyle=1" parent="1" vertex="1">
          <mxGeometry x="9.999999999999972" y="650" width="20" height="20" as="geometry" />
        </mxCell>
        <mxCell id="NiUOaJjkk8fQGssEyTuc-78" value="2" style="ellipse;whiteSpace=wrap;html=1;fillColor=#330000;fontColor=#FFFFFF;fontSize=10;fontStyle=1" parent="1" vertex="1">
          <mxGeometry x="29.999999999999986" y="640" width="20" height="20" as="geometry" />
        </mxCell>
        <mxCell id="NiUOaJjkk8fQGssEyTuc-79" value="3" style="ellipse;whiteSpace=wrap;html=1;fillColor=#330000;fontColor=#FFFFFF;fontSize=10;fontStyle=1" parent="1" vertex="1">
          <mxGeometry x="49.999999999999986" y="630" width="20" height="20" as="geometry" />
        </mxCell>
        <mxCell id="NiUOaJjkk8fQGssEyTuc-80" value="5" style="ellipse;whiteSpace=wrap;html=1;fillColor=#330000;fontColor=#FFFFFF;fontSize=10;fontStyle=1" parent="1" vertex="1">
          <mxGeometry x="99.99999999999997" y="630" width="20" height="20" as="geometry" />
        </mxCell>
        <mxCell id="NiUOaJjkk8fQGssEyTuc-81" value="6" style="ellipse;whiteSpace=wrap;html=1;fillColor=#330000;fontColor=#FFFFFF;fontSize=10;fontStyle=1" parent="1" vertex="1">
          <mxGeometry x="130" y="640" width="20" height="20" as="geometry" />
        </mxCell>
        <mxCell id="zd7bPqSFU-WeYQIz0miQ-1" value="" style="edgeStyle=none;orthogonalLoop=1;jettySize=auto;html=1;rounded=0;endArrow=classic;startSize=6;endSize=6;sourcePerimeterSpacing=8;targetPerimeterSpacing=8;curved=1;exitX=1;exitY=0.5;exitDx=0;exitDy=0;entryX=0;entryY=0.25;entryDx=0;entryDy=0;strokeColor=#FFB570;strokeWidth=2;endFill=1;" parent="1" source="QPKnpDNXjxQwDzzotiPI-3" target="QPKnpDNXjxQwDzzotiPI-6" edge="1">
          <mxGeometry width="140" relative="1" as="geometry">
            <mxPoint x="480" y="350" as="sourcePoint" />
            <mxPoint x="620" y="350" as="targetPoint" />
            <Array as="points" />
          </mxGeometry>
        </mxCell>
        <mxCell id="0H2d5lAbGC8Fw2T8ENVp-2" value="4" style="ellipse;whiteSpace=wrap;html=1;fillColor=#330000;fontColor=#FFFFFF;fontSize=10;fontStyle=1" parent="1" vertex="1">
          <mxGeometry x="75" y="730" width="20" height="20" as="geometry" />
        </mxCell>
        <mxCell id="0H2d5lAbGC8Fw2T8ENVp-3" value="1" style="ellipse;whiteSpace=wrap;html=1;fillColor=#330000;fontColor=#FFFFFF;fontSize=10;fontStyle=1" parent="1" vertex="1">
          <mxGeometry x="9.999999999999972" y="750" width="20" height="20" as="geometry" />
        </mxCell>
        <mxCell id="0H2d5lAbGC8Fw2T8ENVp-4" value="2" style="ellipse;whiteSpace=wrap;html=1;fillColor=#330000;fontColor=#FFFFFF;fontSize=10;fontStyle=1" parent="1" vertex="1">
          <mxGeometry x="29.999999999999986" y="740" width="20" height="20" as="geometry" />
        </mxCell>
        <mxCell id="0H2d5lAbGC8Fw2T8ENVp-5" value="3" style="ellipse;whiteSpace=wrap;html=1;fillColor=#330000;fontColor=#FFFFFF;fontSize=10;fontStyle=1" parent="1" vertex="1">
          <mxGeometry x="49.999999999999986" y="730" width="20" height="20" as="geometry" />
        </mxCell>
        <mxCell id="0H2d5lAbGC8Fw2T8ENVp-6" value="5" style="ellipse;whiteSpace=wrap;html=1;fillColor=#330000;fontColor=#FFFFFF;fontSize=10;fontStyle=1" parent="1" vertex="1">
          <mxGeometry x="99.99999999999997" y="730" width="20" height="20" as="geometry" />
        </mxCell>
        <mxCell id="0H2d5lAbGC8Fw2T8ENVp-7" value="6" style="ellipse;whiteSpace=wrap;html=1;fillColor=#330000;fontColor=#FFFFFF;fontSize=10;fontStyle=1" parent="1" vertex="1">
          <mxGeometry x="130" y="740" width="20" height="20" as="geometry" />
        </mxCell>
        <mxCell id="LRofh7eZILfoCd86CygD-9" value="FLUX GENERIQUE ou AUTOMATIQUE" style="shape=hexagon;perimeter=hexagonPerimeter2;whiteSpace=wrap;html=1;fixedSize=1;fillColor=#FFF2CC;strokeColor=#82b366;" parent="1" vertex="1">
          <mxGeometry x="310" y="20" width="120" height="50" as="geometry" />
        </mxCell>
        <mxCell id="LRofh7eZILfoCd86CygD-10" value="CONNECTEUR GED SFTP" style="rounded=1;whiteSpace=wrap;html=1;fillColor=#cce5ff;strokeColor=#36393d;" parent="1" vertex="1">
          <mxGeometry x="600" y="20" width="140" height="50" as="geometry" />
        </mxCell>
        <mxCell id="LRofh7eZILfoCd86CygD-11" value="CONNECTEUR DE TRANSFORMATION" style="rounded=1;whiteSpace=wrap;html=1;fillColor=#ffcccc;strokeColor=#36393d;" parent="1" vertex="1">
          <mxGeometry x="748" y="20" width="140" height="50" as="geometry" />
        </mxCell>
        <mxCell id="LRofh7eZILfoCd86CygD-12" value="transfo-ajout-siren-auto" style="rounded=1;whiteSpace=wrap;html=1;fillColor=#ffcccc;strokeColor=#36393d;" parent="1" vertex="1">
          <mxGeometry x="870" y="495" width="140" height="50" as="geometry" />
        </mxCell>
        <mxCell id="LRofh7eZILfoCd86CygD-13" value="ged-sftp-opendata-auto" style="rounded=1;whiteSpace=wrap;html=1;fillColor=#cce5ff;strokeColor=#36393d;" parent="1" vertex="1">
          <mxGeometry x="870" y="384" width="140" height="50" as="geometry" />
        </mxCell>
        <mxCell id="LRofh7eZILfoCd86CygD-15" value="" style="ellipse;whiteSpace=wrap;html=1;fontSize=17;fillColor=none;strokeColor=#990000;strokeWidth=3;" parent="1" vertex="1">
          <mxGeometry x="756.5" y="150" width="325" height="191.75" as="geometry" />
        </mxCell>
        <mxCell id="LRofh7eZILfoCd86CygD-16" value="&lt;div style=&quot;border-color: var(--border-color); font-size: 20px;&quot;&gt;&lt;font style=&quot;border-color: var(--border-color); font-size: 20px;&quot;&gt;[POD] non renseigné :&lt;br style=&quot;border-color: var(--border-color);&quot;&gt;&lt;/font&gt;&lt;/div&gt;&lt;div style=&quot;border-color: var(--border-color); font-size: 20px;&quot;&gt;&lt;br style=&quot;border-color: var(--border-color);&quot;&gt;&lt;/div&gt;&lt;div style=&quot;border-color: var(--border-color); font-size: 10px;&quot;&gt;&lt;br style=&quot;border-color: var(--border-color);&quot;&gt;&lt;/div&gt;&lt;div style=&quot;border-color: var(--border-color); font-size: 10px;&quot;&gt;&lt;br style=&quot;border-color: var(--border-color);&quot;&gt;&lt;/div&gt;&lt;div style=&quot;border-color: var(--border-color); font-size: 10px;&quot;&gt;&lt;br style=&quot;border-color: var(--border-color);&quot;&gt;&lt;/div&gt;&lt;div style=&quot;border-color: var(--border-color); font-size: 10px;&quot;&gt;&lt;br style=&quot;border-color: var(--border-color);&quot;&gt;&lt;/div&gt;&lt;div style=&quot;border-color: var(--border-color); font-size: 10px;&quot;&gt;&lt;br style=&quot;border-color: var(--border-color);&quot;&gt;&lt;/div&gt;&lt;div style=&quot;border-color: var(--border-color); font-size: 10px;&quot;&gt;&lt;br style=&quot;border-color: var(--border-color);&quot;&gt;&lt;/div&gt;&lt;div style=&quot;border-color: var(--border-color); font-size: 10px;&quot;&gt;&lt;br style=&quot;border-color: var(--border-color);&quot;&gt;&lt;/div&gt;&lt;div style=&quot;border-color: var(--border-color); font-size: 10px;&quot;&gt;&lt;br style=&quot;border-color: var(--border-color); color: rgb(0, 0, 0); font-family: Helvetica; font-size: 10px; font-style: normal; font-variant-ligatures: normal; font-variant-caps: normal; font-weight: 400; letter-spacing: normal; orphans: 2; text-align: center; text-indent: 0px; text-transform: none; widows: 2; word-spacing: 0px; -webkit-text-stroke-width: 0px; background-color: rgb(251, 251, 251); text-decoration-thickness: initial; text-decoration-style: initial; text-decoration-color: initial;&quot;&gt;&lt;br&gt;&lt;br&gt;&lt;/div&gt;" style="text;whiteSpace=wrap;html=1;fontSize=17;" parent="1" vertex="1">
          <mxGeometry x="810" y="167.75" width="230" height="40" as="geometry" />
        </mxCell>
        <mxCell id="LRofh7eZILfoCd86CygD-17" value="POST TRAITEMENT" style="ellipse;whiteSpace=wrap;html=1;strokeColor=#990000;strokeWidth=3;fontSize=17;fillColor=none;" parent="1" vertex="1">
          <mxGeometry x="910" y="7.5" width="160" height="75" as="geometry" />
        </mxCell>
        <mxCell id="LRofh7eZILfoCd86CygD-18" value="" style="group" parent="1" connectable="0" vertex="1">
          <mxGeometry x="800" y="595" width="271" height="200" as="geometry" />
        </mxCell>
        <mxCell id="LRofh7eZILfoCd86CygD-6" value="" style="group" parent="LRofh7eZILfoCd86CygD-18" connectable="0" vertex="1">
          <mxGeometry x="1" width="270" height="200" as="geometry" />
        </mxCell>
        <mxCell id="LRofh7eZILfoCd86CygD-4" value="" style="rounded=0;whiteSpace=wrap;html=1;fillColor=none;" parent="LRofh7eZILfoCd86CygD-6" vertex="1">
          <mxGeometry width="270" height="200.00000000000003" as="geometry" />
        </mxCell>
        <mxCell id="NiUOaJjkk8fQGssEyTuc-55" value="&lt;font style=&quot;font-size: 14px;&quot;&gt;&amp;nbsp;&lt;span style=&quot;background-color: initial;&quot;&gt;Délibérations&lt;/span&gt;&lt;div style=&quot;line-height: 160%;&quot;&gt;&amp;nbsp;Actes réglementaires&lt;/div&gt;&lt;div style=&quot;line-height: 160%;&quot;&gt;&amp;nbsp;Actes individuels&lt;/div&gt;&lt;div style=&quot;line-height: 160%;&quot;&gt;&amp;nbsp;Contrats,conventions et avenants&lt;/div&gt;&lt;div style=&quot;line-height: 160%;&quot;&gt;&amp;nbsp;Budgets&lt;/div&gt;&lt;div style=&quot;line-height: 160%;&quot;&gt;&amp;nbsp;Autres&lt;/div&gt;&lt;div style=&quot;line-height: 160%;&quot;&gt;&amp;nbsp;Hors préfecture&lt;/div&gt;&lt;/font&gt;" style="text;html=1;align=left;verticalAlign=top;whiteSpace=wrap;rounded=0;fontSize=14;spacingBottom=0;strokeWidth=1;spacingTop=0;spacing=0;" parent="LRofh7eZILfoCd86CygD-6" vertex="1">
          <mxGeometry x="50" y="31.269999999999996" width="220" height="152.73" as="geometry" />
        </mxCell>
        <mxCell id="LRofh7eZILfoCd86CygD-7" value="Natures des actes" style="text;strokeColor=none;fillColor=none;html=1;align=center;verticalAlign=middle;whiteSpace=wrap;rounded=0;fontStyle=1;fontSize=17;" parent="LRofh7eZILfoCd86CygD-18" vertex="1">
          <mxGeometry width="175" height="30" as="geometry" />
        </mxCell>
        <mxCell id="NiUOaJjkk8fQGssEyTuc-69" value="&lt;font style=&quot;font-size: 10px;&quot;&gt;1&lt;/font&gt;" style="ellipse;whiteSpace=wrap;html=1;fillColor=#330000;fontColor=#FFFFFF;fontSize=10;fontStyle=1" parent="LRofh7eZILfoCd86CygD-18" vertex="1">
          <mxGeometry x="21.620000000000005" y="30" width="20" height="20" as="geometry" />
        </mxCell>
        <mxCell id="NiUOaJjkk8fQGssEyTuc-70" value="&lt;font style=&quot;font-size: 10px;&quot;&gt;2&lt;/font&gt;" style="ellipse;whiteSpace=wrap;html=1;fillColor=#330000;fontColor=#FFFFFF;fontSize=10;fontStyle=1" parent="LRofh7eZILfoCd86CygD-18" vertex="1">
          <mxGeometry x="21.620000000000005" y="52" width="20" height="20" as="geometry" />
        </mxCell>
        <mxCell id="NiUOaJjkk8fQGssEyTuc-71" value="&lt;font style=&quot;font-size: 10px;&quot;&gt;3&lt;/font&gt;" style="ellipse;whiteSpace=wrap;html=1;fillColor=#330000;fontColor=#FFFFFF;fontSize=10;fontStyle=1" parent="LRofh7eZILfoCd86CygD-18" vertex="1">
          <mxGeometry x="21.620000000000005" y="75" width="20" height="20" as="geometry" />
        </mxCell>
        <mxCell id="NiUOaJjkk8fQGssEyTuc-72" value="&lt;font style=&quot;font-size: 10px;&quot;&gt;4&lt;/font&gt;" style="ellipse;whiteSpace=wrap;html=1;fillColor=#330000;fontColor=#FFFFFF;fontSize=10;fontStyle=1" parent="LRofh7eZILfoCd86CygD-18" vertex="1">
          <mxGeometry x="22.620000000000005" y="97" width="20" height="20" as="geometry" />
        </mxCell>
        <mxCell id="NiUOaJjkk8fQGssEyTuc-73" value="&lt;font style=&quot;font-size: 10px;&quot;&gt;5&lt;/font&gt;" style="ellipse;whiteSpace=wrap;html=1;fillColor=#330000;fontColor=#FFFFFF;fontSize=10;fontStyle=1" parent="LRofh7eZILfoCd86CygD-18" vertex="1">
          <mxGeometry x="22.620000000000005" y="119" width="20" height="20" as="geometry" />
        </mxCell>
        <mxCell id="NiUOaJjkk8fQGssEyTuc-74" value="&lt;font style=&quot;font-size: 10px;&quot;&gt;6&lt;/font&gt;" style="ellipse;whiteSpace=wrap;html=1;fillColor=#330000;fontColor=#FFFFFF;fontSize=10;fontStyle=1" parent="LRofh7eZILfoCd86CygD-18" vertex="1">
          <mxGeometry x="23.620000000000005" y="142" width="20" height="20" as="geometry" />
        </mxCell>
        <mxCell id="NiUOaJjkk8fQGssEyTuc-75" value="&lt;font style=&quot;font-size: 10px;&quot;&gt;7&lt;/font&gt;" style="ellipse;whiteSpace=wrap;html=1;fillColor=#330000;fontColor=#FFFFFF;fontSize=10;fontStyle=1" parent="LRofh7eZILfoCd86CygD-18" vertex="1">
          <mxGeometry x="24.620000000000005" y="166" width="20" height="20" as="geometry" />
        </mxCell>
        <mxCell id="EOZ-naolbc-LpxOBgqOf-1" value="" style="endArrow=classic;html=1;rounded=0;exitX=1;exitY=0.5;exitDx=0;exitDy=0;strokeColor=#009900;strokeWidth=2;" parent="1" edge="1">
          <mxGeometry width="50" height="50" relative="1" as="geometry">
            <mxPoint x="320" y="160" as="sourcePoint" />
            <mxPoint x="480" y="160.25" as="targetPoint" />
          </mxGeometry>
        </mxCell>
        <mxCell id="EOZ-naolbc-LpxOBgqOf-2" value="Association" style="text;strokeColor=none;fillColor=none;html=1;align=center;verticalAlign=middle;whiteSpace=wrap;rounded=0;" parent="1" vertex="1">
          <mxGeometry x="360" y="139" width="60" height="30" as="geometry" />
        </mxCell>
        <mxCell id="EOZ-naolbc-LpxOBgqOf-4" value="" style="endArrow=classic;html=1;rounded=0;exitX=1;exitY=0.5;exitDx=0;exitDy=0;strokeColor=#FFB570;fillColor=#ffcc99;strokeWidth=2;" parent="1" edge="1">
          <mxGeometry width="50" height="50" relative="1" as="geometry">
            <mxPoint x="320" y="188.75" as="sourcePoint" />
            <mxPoint x="480" y="189" as="targetPoint" />
          </mxGeometry>
        </mxCell>
        <mxCell id="EOZ-naolbc-LpxOBgqOf-5" value="Copie vers dossier" style="text;strokeColor=none;fillColor=none;html=1;align=center;verticalAlign=middle;whiteSpace=wrap;rounded=0;" parent="1" vertex="1">
          <mxGeometry x="330" y="167.75" width="120" height="30" as="geometry" />
        </mxCell>
        <mxCell id="Rxb5QcoUh54B14l-sWhJ-1" value="" style="endArrow=classic;html=1;rounded=0;exitX=1;exitY=0.5;exitDx=0;exitDy=0;entryX=0;entryY=0.5;entryDx=0;entryDy=0;strokeColor=#009900;strokeWidth=2;" edge="1" parent="1" target="QPKnpDNXjxQwDzzotiPI-2">
          <mxGeometry width="50" height="50" relative="1" as="geometry">
            <mxPoint x="160" y="780" as="sourcePoint" />
            <mxPoint x="370" y="720" as="targetPoint" />
          </mxGeometry>
        </mxCell>
      </root>
    </mxGraphModel>
  </diagram>
</mxfile>
